<mxfile host="drawio-plugin" modified="2021-08-20T20:02:40.248Z" agent="5.0 (Windows NT 6.2; Win64; x64) AppleWebKit/537.36 (KHTML, like Gecko) Chrome/89.0.4389.114 Safari/537.36" etag="tKjJThSuE_MGaPYTr-LF" version="14.7.4" type="embed" pages="2"><diagram id="C5RBs43oDa-KdzZeNtuy" name="main"><mxGraphModel dx="1335" dy="907" grid="1" gridSize="10" guides="1" tooltips="1" connect="1" arrows="1" fold="1" page="1" pageScale="1" pageWidth="1169" pageHeight="827" math="0" shadow="0"><root><mxCell id="WIyWlLk6GJQsqaUBKTNV-0"/><mxCell id="WIyWlLk6GJQsqaUBKTNV-1" parent="WIyWlLk6GJQsqaUBKTNV-0"/><mxCell id="JVIKjXKLuiiZFbpOshpX-0" value="WeatherData" style="swimlane;fontStyle=0;align=center;verticalAlign=top;childLayout=stackLayout;horizontal=1;startSize=26;horizontalStack=0;resizeParent=1;resizeLast=0;collapsible=1;marginBottom=0;rounded=0;shadow=0;strokeWidth=1;" parent="WIyWlLk6GJQsqaUBKTNV-1" vertex="1" collapsed="1"><mxGeometry x="425" y="270" width="160" height="26" as="geometry"><mxRectangle x="295" y="274" width="160" height="172" as="alternateBounds"/></mxGeometry></mxCell><mxCell id="JVIKjXKLuiiZFbpOshpX-1" value="+DateTime: DateTime?" style="text;align=left;verticalAlign=top;spacingLeft=4;spacingRight=4;overflow=hidden;rotatable=0;points=[[0,0.5],[1,0.5]];portConstraint=eastwest;" parent="JVIKjXKLuiiZFbpOshpX-0" vertex="1"><mxGeometry y="26" width="160" height="22" as="geometry"/></mxCell><mxCell id="JVIKjXKLuiiZFbpOshpX-2" value="+Zipcode: string?" style="text;align=left;verticalAlign=top;spacingLeft=4;spacingRight=4;overflow=hidden;rotatable=0;points=[[0,0.5],[1,0.5]];portConstraint=eastwest;" parent="JVIKjXKLuiiZFbpOshpX-0" vertex="1"><mxGeometry y="48" width="160" height="22" as="geometry"/></mxCell><mxCell id="JVIKjXKLuiiZFbpOshpX-3" value="+Temperature: double?" style="text;align=left;verticalAlign=top;spacingLeft=4;spacingRight=4;overflow=hidden;rotatable=0;points=[[0,0.5],[1,0.5]];portConstraint=eastwest;rounded=0;shadow=0;html=0;" parent="JVIKjXKLuiiZFbpOshpX-0" vertex="1"><mxGeometry y="70" width="160" height="24" as="geometry"/></mxCell><mxCell id="JVIKjXKLuiiZFbpOshpX-4" value="+Precipitation: double?" style="text;align=left;verticalAlign=top;spacingLeft=4;spacingRight=4;overflow=hidden;rotatable=0;points=[[0,0.5],[1,0.5]];portConstraint=eastwest;rounded=0;shadow=0;html=0;" parent="JVIKjXKLuiiZFbpOshpX-0" vertex="1"><mxGeometry y="94" width="160" height="26" as="geometry"/></mxCell><mxCell id="JVIKjXKLuiiZFbpOshpX-5" value="+Humidity: double?" style="text;align=left;verticalAlign=top;spacingLeft=4;spacingRight=4;overflow=hidden;rotatable=0;points=[[0,0.5],[1,0.5]];portConstraint=eastwest;rounded=0;shadow=0;html=0;" parent="JVIKjXKLuiiZFbpOshpX-0" vertex="1"><mxGeometry y="120" width="160" height="26" as="geometry"/></mxCell><mxCell id="JVIKjXKLuiiZFbpOshpX-6" value="+UvIndex: int?" style="text;align=left;verticalAlign=top;spacingLeft=4;spacingRight=4;overflow=hidden;rotatable=0;points=[[0,0.5],[1,0.5]];portConstraint=eastwest;rounded=0;shadow=0;html=0;" parent="JVIKjXKLuiiZFbpOshpX-0" vertex="1"><mxGeometry y="146" width="160" height="26" as="geometry"/></mxCell><mxCell id="JVIKjXKLuiiZFbpOshpX-7" value="MapPoint" style="swimlane;fontStyle=0;align=center;verticalAlign=top;childLayout=stackLayout;horizontal=1;startSize=26;horizontalStack=0;resizeParent=1;resizeLast=0;collapsible=1;marginBottom=0;rounded=0;shadow=0;strokeWidth=1;" parent="WIyWlLk6GJQsqaUBKTNV-1" vertex="1" collapsed="1"><mxGeometry x="425" y="100" width="160" height="26" as="geometry"><mxRectangle x="425" y="100" width="160" height="92" as="alternateBounds"/></mxGeometry></mxCell><mxCell id="JVIKjXKLuiiZFbpOshpX-8" value="+Latitude: double" style="text;align=left;verticalAlign=top;spacingLeft=4;spacingRight=4;overflow=hidden;rotatable=0;points=[[0,0.5],[1,0.5]];portConstraint=eastwest;" parent="JVIKjXKLuiiZFbpOshpX-7" vertex="1"><mxGeometry y="26" width="160" height="26" as="geometry"/></mxCell><mxCell id="JVIKjXKLuiiZFbpOshpX-9" value="+Longitude: double" style="text;align=left;verticalAlign=top;spacingLeft=4;spacingRight=4;overflow=hidden;rotatable=0;points=[[0,0.5],[1,0.5]];portConstraint=eastwest;rounded=0;shadow=0;html=0;" parent="JVIKjXKLuiiZFbpOshpX-7" vertex="1"><mxGeometry y="52" width="160" height="26" as="geometry"/></mxCell><mxCell id="JVIKjXKLuiiZFbpOshpX-13" value="GreetingService" style="swimlane;fontStyle=0;align=center;verticalAlign=top;childLayout=stackLayout;horizontal=1;startSize=26;horizontalStack=0;resizeParent=1;resizeLast=0;collapsible=1;marginBottom=0;rounded=0;shadow=0;strokeWidth=1;" parent="WIyWlLk6GJQsqaUBKTNV-1" vertex="1"><mxGeometry x="514" y="524" width="260" height="94" as="geometry"><mxRectangle x="514" y="524" width="160" height="26" as="alternateBounds"/></mxGeometry></mxCell><mxCell id="JVIKjXKLuiiZFbpOshpX-14" value="-_id:int" style="text;align=left;verticalAlign=top;spacingLeft=4;spacingRight=4;overflow=hidden;rotatable=0;points=[[0,0.5],[1,0.5]];portConstraint=eastwest;" parent="JVIKjXKLuiiZFbpOshpX-13" vertex="1"><mxGeometry y="26" width="260" height="26" as="geometry"/></mxCell><mxCell id="JVIKjXKLuiiZFbpOshpX-17" value="" style="line;html=1;strokeWidth=1;align=left;verticalAlign=middle;spacingTop=-1;spacingLeft=3;spacingRight=3;rotatable=0;labelPosition=right;points=[];portConstraint=eastwest;" parent="JVIKjXKLuiiZFbpOshpX-13" vertex="1"><mxGeometry y="52" width="260" height="8" as="geometry"/></mxCell><mxCell id="JVIKjXKLuiiZFbpOshpX-18" value="+ TransmitGreeting(greeting: string): void" style="text;align=left;verticalAlign=top;spacingLeft=4;spacingRight=4;overflow=hidden;rotatable=0;points=[[0,0.5],[1,0.5]];portConstraint=eastwest;" parent="JVIKjXKLuiiZFbpOshpX-13" vertex="1"><mxGeometry y="60" width="260" height="26" as="geometry"/></mxCell><mxCell id="JVIKjXKLuiiZFbpOshpX-19" value="LocationService" style="swimlane;fontStyle=0;align=center;verticalAlign=top;childLayout=stackLayout;horizontal=1;startSize=26;horizontalStack=0;resizeParent=1;resizeLast=0;collapsible=1;marginBottom=0;rounded=0;shadow=0;strokeWidth=1;" parent="WIyWlLk6GJQsqaUBKTNV-1" vertex="1" collapsed="1"><mxGeometry x="514" y="788" width="160" height="26" as="geometry"><mxRectangle x="505" y="743" width="300" height="90" as="alternateBounds"/></mxGeometry></mxCell><mxCell id="JVIKjXKLuiiZFbpOshpX-20" value="-_mapPoints:Dictionary&lt;string, MapPoint&gt;" style="text;align=left;verticalAlign=top;spacingLeft=4;spacingRight=4;overflow=hidden;rotatable=0;points=[[0,0.5],[1,0.5]];portConstraint=eastwest;" parent="JVIKjXKLuiiZFbpOshpX-19" vertex="1"><mxGeometry y="26" width="160" height="26" as="geometry"/></mxCell><mxCell id="JVIKjXKLuiiZFbpOshpX-21" value="" style="line;html=1;strokeWidth=1;align=left;verticalAlign=middle;spacingTop=-1;spacingLeft=3;spacingRight=3;rotatable=0;labelPosition=right;points=[];portConstraint=eastwest;" parent="JVIKjXKLuiiZFbpOshpX-19" vertex="1"><mxGeometry y="52" width="160" height="8" as="geometry"/></mxCell><mxCell id="JVIKjXKLuiiZFbpOshpX-22" value="+ GetLocation(location: string): MapPoint" style="text;align=left;verticalAlign=top;spacingLeft=4;spacingRight=4;overflow=hidden;rotatable=0;points=[[0,0.5],[1,0.5]];portConstraint=eastwest;" parent="JVIKjXKLuiiZFbpOshpX-19" vertex="1"><mxGeometry y="60" width="160" height="26" as="geometry"/></mxCell><mxCell id="XW8Slaa4r7kzHoLJjILm-15" value="WeatherGreeting" style="swimlane;fontStyle=0;align=center;verticalAlign=top;childLayout=stackLayout;horizontal=1;startSize=26;horizontalStack=0;resizeParent=1;resizeParentMax=0;resizeLast=0;collapsible=1;marginBottom=0;" parent="WIyWlLk6GJQsqaUBKTNV-1" vertex="1"><mxGeometry y="270" width="250" height="138" as="geometry"><mxRectangle y="270" width="120" height="26" as="alternateBounds"/></mxGeometry></mxCell><mxCell id="XW8Slaa4r7kzHoLJjILm-16" value="- _greetingService: GreetingService" style="text;strokeColor=none;fillColor=none;align=left;verticalAlign=top;spacingLeft=4;spacingRight=4;overflow=hidden;rotatable=0;points=[[0,0.5],[1,0.5]];portConstraint=eastwest;" parent="XW8Slaa4r7kzHoLJjILm-15" vertex="1"><mxGeometry y="26" width="250" height="26" as="geometry"/></mxCell><mxCell id="XW8Slaa4r7kzHoLJjILm-20" value="- _weatherService: WeatherService" style="text;strokeColor=none;fillColor=none;align=left;verticalAlign=top;spacingLeft=4;spacingRight=4;overflow=hidden;rotatable=0;points=[[0,0.5],[1,0.5]];portConstraint=eastwest;" parent="XW8Slaa4r7kzHoLJjILm-15" vertex="1"><mxGeometry y="52" width="250" height="26" as="geometry"/></mxCell><mxCell id="XW8Slaa4r7kzHoLJjILm-21" value="- _locationService: LocationService" style="text;strokeColor=none;fillColor=none;align=left;verticalAlign=top;spacingLeft=4;spacingRight=4;overflow=hidden;rotatable=0;points=[[0,0.5],[1,0.5]];portConstraint=eastwest;" parent="XW8Slaa4r7kzHoLJjILm-15" vertex="1"><mxGeometry y="78" width="250" height="26" as="geometry"/></mxCell><mxCell id="XW8Slaa4r7kzHoLJjILm-17" value="" style="line;strokeWidth=1;fillColor=none;align=left;verticalAlign=middle;spacingTop=-1;spacingLeft=3;spacingRight=3;rotatable=0;labelPosition=right;points=[];portConstraint=eastwest;" parent="XW8Slaa4r7kzHoLJjILm-15" vertex="1"><mxGeometry y="104" width="250" height="8" as="geometry"/></mxCell><mxCell id="XW8Slaa4r7kzHoLJjILm-18" value="+ TransmitGreeting(location: string): string" style="text;strokeColor=none;fillColor=none;align=left;verticalAlign=top;spacingLeft=4;spacingRight=4;overflow=hidden;rotatable=0;points=[[0,0.5],[1,0.5]];portConstraint=eastwest;" parent="XW8Slaa4r7kzHoLJjILm-15" vertex="1"><mxGeometry y="112" width="250" height="26" as="geometry"/></mxCell><mxCell id="XW8Slaa4r7kzHoLJjILm-29" value="" style="endArrow=open;html=1;endSize=12;startArrow=diamondThin;startSize=14;startFill=1;align=left;verticalAlign=bottom;edgeStyle=entityRelationEdgeStyle;exitX=1;exitY=0.5;exitDx=0;exitDy=0;" parent="WIyWlLk6GJQsqaUBKTNV-1" source="XW8Slaa4r7kzHoLJjILm-15" target="JVIKjXKLuiiZFbpOshpX-13" edge="1"><mxGeometry x="-1" y="3" relative="1" as="geometry"><mxPoint x="120" y="287" as="sourcePoint"/><mxPoint x="500" y="359" as="targetPoint"/></mxGeometry></mxCell><mxCell id="XW8Slaa4r7kzHoLJjILm-30" value="" style="endArrow=open;html=1;endSize=12;startArrow=diamondThin;startSize=14;startFill=1;align=left;verticalAlign=bottom;edgeStyle=entityRelationEdgeStyle;entryX=0;entryY=0.923;entryDx=0;entryDy=0;entryPerimeter=0;exitX=1;exitY=0.5;exitDx=0;exitDy=0;" parent="WIyWlLk6GJQsqaUBKTNV-1" source="XW8Slaa4r7kzHoLJjILm-15" target="hYWNDP8pqv5pI-FhOFDq-2" edge="1"><mxGeometry x="-1" y="3" relative="1" as="geometry"><mxPoint x="300" y="360" as="sourcePoint"/><mxPoint x="504.03999999999996" y="995.0040000000001" as="targetPoint"/></mxGeometry></mxCell><mxCell id="XW8Slaa4r7kzHoLJjILm-31" value="" style="endArrow=open;html=1;endSize=12;startArrow=diamondThin;startSize=14;startFill=1;align=left;verticalAlign=bottom;edgeStyle=entityRelationEdgeStyle;entryX=-0.01;entryY=0.348;entryDx=0;entryDy=0;entryPerimeter=0;exitX=1;exitY=0.5;exitDx=0;exitDy=0;" parent="WIyWlLk6GJQsqaUBKTNV-1" source="XW8Slaa4r7kzHoLJjILm-15" target="JVIKjXKLuiiZFbpOshpX-19" edge="1"><mxGeometry x="-1" y="3" relative="1" as="geometry"><mxPoint x="300" y="360" as="sourcePoint"/><mxPoint x="505" y="330" as="targetPoint"/></mxGeometry></mxCell><mxCell id="XW8Slaa4r7kzHoLJjILm-32" value="" style="endArrow=open;endSize=12;dashed=1;html=1;entryX=0;entryY=0.5;entryDx=0;entryDy=0;edgeStyle=elbowEdgeStyle;exitX=1;exitY=0.5;exitDx=0;exitDy=0;" parent="WIyWlLk6GJQsqaUBKTNV-1" source="XW8Slaa4r7kzHoLJjILm-16" target="JVIKjXKLuiiZFbpOshpX-7" edge="1"><mxGeometry x="0.0034" y="-12" width="160" relative="1" as="geometry"><mxPoint x="300" y="320" as="sourcePoint"/><mxPoint x="240" y="90" as="targetPoint"/><mxPoint as="offset"/></mxGeometry></mxCell><mxCell id="XW8Slaa4r7kzHoLJjILm-34" value="" style="endArrow=open;endSize=12;dashed=1;html=1;exitX=1.011;exitY=0.795;exitDx=0;exitDy=0;exitPerimeter=0;entryX=1;entryY=0.5;entryDx=0;entryDy=0;edgeStyle=elbowEdgeStyle;" parent="WIyWlLk6GJQsqaUBKTNV-1" source="JVIKjXKLuiiZFbpOshpX-20" target="JVIKjXKLuiiZFbpOshpX-7" edge="1"><mxGeometry x="-0.011" width="160" relative="1" as="geometry"><mxPoint x="860" y="283" as="sourcePoint"/><mxPoint x="1070.75" y="34.48799999999983" as="targetPoint"/><Array as="points"><mxPoint x="1000" y="490"/></Array><mxPoint as="offset"/></mxGeometry></mxCell><mxCell id="XW8Slaa4r7kzHoLJjILm-37" value="" style="endArrow=open;endSize=12;dashed=1;html=1;exitX=1;exitY=0.5;exitDx=0;exitDy=0;entryX=0;entryY=0.5;entryDx=0;entryDy=0;" parent="WIyWlLk6GJQsqaUBKTNV-1" source="XW8Slaa4r7kzHoLJjILm-16" target="JVIKjXKLuiiZFbpOshpX-0" edge="1"><mxGeometry x="0.0034" y="-12" width="160" relative="1" as="geometry"><mxPoint x="390" y="230" as="sourcePoint"/><mxPoint x="520.75" y="28.487999999999943" as="targetPoint"/><mxPoint as="offset"/></mxGeometry></mxCell><mxCell id="XW8Slaa4r7kzHoLJjILm-38" value="" style="endArrow=open;endSize=12;dashed=1;html=1;exitX=0.5;exitY=0;exitDx=0;exitDy=0;" parent="WIyWlLk6GJQsqaUBKTNV-1" source="JVIKjXKLuiiZFbpOshpX-0" edge="1"><mxGeometry x="0.0034" y="-12" width="160" relative="1" as="geometry"><mxPoint x="505" y="230" as="sourcePoint"/><mxPoint x="505" y="130" as="targetPoint"/><mxPoint as="offset"/></mxGeometry></mxCell><mxCell id="hYWNDP8pqv5pI-FhOFDq-1" value="WeatherService" style="swimlane;fontStyle=0;align=center;verticalAlign=top;childLayout=stackLayout;horizontal=1;startSize=26;horizontalStack=0;resizeParent=1;resizeParentMax=0;resizeLast=0;collapsible=1;marginBottom=0;" parent="WIyWlLk6GJQsqaUBKTNV-1" vertex="1"><mxGeometry x="514" y="656" width="450" height="86" as="geometry"><mxRectangle x="514" y="656" width="120" height="26" as="alternateBounds"/></mxGeometry></mxCell><mxCell id="hYWNDP8pqv5pI-FhOFDq-2" value="- _randomGenerator: Random" style="text;strokeColor=none;fillColor=none;align=left;verticalAlign=top;spacingLeft=4;spacingRight=4;overflow=hidden;rotatable=0;points=[[0,0.5],[1,0.5]];portConstraint=eastwest;" parent="hYWNDP8pqv5pI-FhOFDq-1" vertex="1"><mxGeometry y="26" width="450" height="26" as="geometry"/></mxCell><mxCell id="hYWNDP8pqv5pI-FhOFDq-5" value="" style="line;strokeWidth=1;fillColor=none;align=left;verticalAlign=middle;spacingTop=-1;spacingLeft=3;spacingRight=3;rotatable=0;labelPosition=right;points=[];portConstraint=eastwest;" parent="hYWNDP8pqv5pI-FhOFDq-1" vertex="1"><mxGeometry y="52" width="450" height="8" as="geometry"/></mxCell><mxCell id="hYWNDP8pqv5pI-FhOFDq-6" value="+ FetchWeatherData(mapPoint: MapPoint, dateTime: DateTime): WeatherData" style="text;strokeColor=none;fillColor=none;align=left;verticalAlign=top;spacingLeft=4;spacingRight=4;overflow=hidden;rotatable=0;points=[[0,0.5],[1,0.5]];portConstraint=eastwest;" parent="hYWNDP8pqv5pI-FhOFDq-1" vertex="1"><mxGeometry y="60" width="450" height="26" as="geometry"/></mxCell><mxCell id="hYWNDP8pqv5pI-FhOFDq-7" value="" style="endArrow=open;endSize=12;dashed=1;html=1;exitX=1;exitY=1;exitDx=0;exitDy=0;exitPerimeter=0;entryX=1;entryY=0.5;entryDx=0;entryDy=0;edgeStyle=elbowEdgeStyle;" parent="WIyWlLk6GJQsqaUBKTNV-1" source="hYWNDP8pqv5pI-FhOFDq-5" target="JVIKjXKLuiiZFbpOshpX-9" edge="1"><mxGeometry x="0.0034" y="-12" width="160" relative="1" as="geometry"><mxPoint x="1050" y="924.5120000000001" as="sourcePoint"/><mxPoint x="1180.75" y="723" as="targetPoint"/><Array as="points"><mxPoint x="1140" y="583"/></Array><mxPoint as="offset"/></mxGeometry></mxCell><mxCell id="hYWNDP8pqv5pI-FhOFDq-8" value="" style="endArrow=open;endSize=12;dashed=1;html=1;exitX=1.014;exitY=-0.093;exitDx=0;exitDy=0;exitPerimeter=0;entryX=1;entryY=0.5;entryDx=0;entryDy=0;edgeStyle=elbowEdgeStyle;" parent="WIyWlLk6GJQsqaUBKTNV-1" source="hYWNDP8pqv5pI-FhOFDq-6" target="JVIKjXKLuiiZFbpOshpX-3" edge="1"><mxGeometry x="0.0034" y="-12" width="160" relative="1" as="geometry"><mxPoint x="640" y="351.51200000000006" as="sourcePoint"/><mxPoint x="770.75" y="150" as="targetPoint"/><Array as="points"><mxPoint x="1010" y="460"/></Array><mxPoint as="offset"/></mxGeometry></mxCell></root></mxGraphModel></diagram><diagram id="kcsYNneUNL-KiNAQAznL" name="weatherService-metrics-decorator-lab"><mxGraphModel dx="1335" dy="907" grid="1" gridSize="10" guides="1" tooltips="1" connect="1" arrows="1" fold="1" page="1" pageScale="1" pageWidth="1100" pageHeight="850" math="0" shadow="0"><root><mxCell id="9avbep91isfVk5rmMOqU-0"/><mxCell id="9avbep91isfVk5rmMOqU-1" parent="9avbep91isfVk5rmMOqU-0"/><mxCell id="9avbep91isfVk5rmMOqU-2" value="WeatherGreeting" style="html=1;" parent="9avbep91isfVk5rmMOqU-1" vertex="1"><mxGeometry x="70" y="270" width="110" height="20" as="geometry"/></mxCell><mxCell id="9avbep91isfVk5rmMOqU-3" value="IWeatherService" style="html=1;" parent="9avbep91isfVk5rmMOqU-1" vertex="1"><mxGeometry x="320" y="270" width="110" height="20" as="geometry"/></mxCell><mxCell id="9avbep91isfVk5rmMOqU-4" value="" style="endArrow=open;html=1;endSize=12;startArrow=diamondThin;startSize=14;startFill=1;edgeStyle=orthogonalEdgeStyle;align=left;verticalAlign=bottom;exitX=1;exitY=0.5;exitDx=0;exitDy=0;entryX=0;entryY=0.5;entryDx=0;entryDy=0;" parent="9avbep91isfVk5rmMOqU-1" source="9avbep91isfVk5rmMOqU-2" target="9avbep91isfVk5rmMOqU-3" edge="1"><mxGeometry x="-1" y="3" relative="1" as="geometry"><mxPoint x="470" y="440" as="sourcePoint"/><mxPoint x="630" y="440" as="targetPoint"/></mxGeometry></mxCell><mxCell id="9avbep91isfVk5rmMOqU-5" value="WeatherServiceMetricsDecorator" style="swimlane;fontStyle=0;align=center;verticalAlign=top;childLayout=stackLayout;horizontal=1;startSize=26;horizontalStack=0;resizeParent=1;resizeParentMax=0;resizeLast=0;collapsible=1;marginBottom=0;" parent="9avbep91isfVk5rmMOqU-1" vertex="1"><mxGeometry x="210" y="420" width="330" height="112" as="geometry"/></mxCell><mxCell id="9avbep91isfVk5rmMOqU-6" value="- _weatherServiceDecoratee: IWeatherService" style="text;strokeColor=none;fillColor=none;align=left;verticalAlign=top;spacingLeft=4;spacingRight=4;overflow=hidden;rotatable=0;points=[[0,0.5],[1,0.5]];portConstraint=eastwest;" parent="9avbep91isfVk5rmMOqU-5" vertex="1"><mxGeometry y="26" width="330" height="26" as="geometry"/></mxCell><mxCell id="9avbep91isfVk5rmMOqU-7" value="+ WeatherServiceRequestCount" style="text;strokeColor=none;fillColor=none;align=left;verticalAlign=top;spacingLeft=4;spacingRight=4;overflow=hidden;rotatable=0;points=[[0,0.5],[1,0.5]];portConstraint=eastwest;" parent="9avbep91isfVk5rmMOqU-5" vertex="1"><mxGeometry y="52" width="330" height="26" as="geometry"/></mxCell><mxCell id="9avbep91isfVk5rmMOqU-9" value="" style="line;strokeWidth=1;fillColor=none;align=left;verticalAlign=middle;spacingTop=-1;spacingLeft=3;spacingRight=3;rotatable=0;labelPosition=right;points=[];portConstraint=eastwest;" parent="9avbep91isfVk5rmMOqU-5" vertex="1"><mxGeometry y="78" width="330" height="8" as="geometry"/></mxCell><mxCell id="9avbep91isfVk5rmMOqU-10" value="+ FetchWeatherData(MapPoint, DateTime): WeatherData" style="text;strokeColor=none;fillColor=none;align=left;verticalAlign=top;spacingLeft=4;spacingRight=4;overflow=hidden;rotatable=0;points=[[0,0.5],[1,0.5]];portConstraint=eastwest;" parent="9avbep91isfVk5rmMOqU-5" vertex="1"><mxGeometry y="86" width="330" height="26" as="geometry"/></mxCell><mxCell id="9avbep91isfVk5rmMOqU-11" value="" style="endArrow=block;dashed=1;endFill=0;endSize=12;html=1;exitX=0.5;exitY=0;exitDx=0;exitDy=0;entryX=0.5;entryY=1;entryDx=0;entryDy=0;" parent="9avbep91isfVk5rmMOqU-1" source="9avbep91isfVk5rmMOqU-5" target="9avbep91isfVk5rmMOqU-3" edge="1"><mxGeometry width="160" relative="1" as="geometry"><mxPoint x="550" y="495" as="sourcePoint"/><mxPoint x="550" y="380" as="targetPoint"/></mxGeometry></mxCell><mxCell id="9avbep91isfVk5rmMOqU-12" value="" style="endArrow=open;html=1;endSize=12;startArrow=diamondThin;startSize=14;startFill=1;edgeStyle=orthogonalEdgeStyle;align=left;verticalAlign=bottom;entryX=1;entryY=0.5;entryDx=0;entryDy=0;exitX=1;exitY=0.5;exitDx=0;exitDy=0;" parent="9avbep91isfVk5rmMOqU-1" source="9avbep91isfVk5rmMOqU-7" target="9avbep91isfVk5rmMOqU-3" edge="1"><mxGeometry x="-1" y="3" relative="1" as="geometry"><mxPoint x="470" y="440" as="sourcePoint"/><mxPoint x="630" y="440" as="targetPoint"/><Array as="points"><mxPoint x="590" y="485"/><mxPoint x="590" y="280"/></Array></mxGeometry></mxCell></root></mxGraphModel></diagram></mxfile>